<svg xmlns="http://www.w3.org/2000/svg" viewBox="0 0 256 256">
  <rect width="256" height="256" fill="#1a2b4a"/>
  <path d="M60 80 L60 200 L128 180 L196 200 L196 80 L128 100 Z" fill="#2d4a7c" stroke="#d4af37" stroke-width="3"/>
  <path d="M60 80 L128 100 L128 180 L60 200 Z" fill="#1e3a5f"/>
  <path d="M128 100 L196 80 L196 200 L128 180 Z" fill="#3d5a8c"/>
  <line x1="128" y1="100" x2="128" y2="180" stroke="#d4af37" stroke-width="2"/>
  <path d="M200 50 L200 70 M190 60 L210 60" stroke="#d4af37" stroke-width="4" stroke-linecap="round"/>
  <circle cx="200" cy="60" r="3" fill="#d4af37"/>
  <path d="M220 90 L220 100 M215 95 L225 95" stroke="#d4af37" stroke-width="2.5" stroke-linecap="round"/>
  <circle cx="220" cy="95" r="2" fill="#d4af37"/>
  <path d="M185 35 L185 43 M181 39 L189 39" stroke="#d4af37" stroke-width="2.5" stroke-linecap="round"/>
  <circle cx="185" cy="39" r="2" fill="#d4af37"/>
</svg>